<?xml version="1.0" encoding="utf-8"?><svg id="Layer_1" data-name="Layer 1" xmlns="http://www.w3.org/2000/svg" width="76" height="92" viewBox="0 0 32 38"><title>c9-black-text-logo</title><path d="M14.869,24.5622v4.8633a9.6421,9.6421,0,0,1-.8667,3.8527,6.6246,6.6246,0,0,1-2.0706,2.6006,6.18,6.18,0,0,1-3.997,1.2037A6.324,6.324,0,0,1,3.89,35.8788,6.4884,6.4884,0,0,1,1.867,33.2782,9.6472,9.6472,0,0,1,1,29.4255V8.5742A9.602,9.602,0,0,1,1.867,4.77,6.6258,6.6258,0,0,1,3.89,2.1212,6.6247,6.6247,0,0,1,7.9347.9175a6.4729,6.4729,0,0,1,3.997,1.2037A6.7616,6.7616,0,0,1,14.0023,4.77a9.5968,9.5968,0,0,1,.8667,3.8044v4.864H10.0053V8.5742a3.0318,3.0318,0,0,0-.77-2.215,1.7516,1.7516,0,0,0-2.7933.915,5.2112,5.2112,0,0,0-.2407,1.3V29.4255A3.3208,3.3208,0,0,0,7.02,31.6408a1.3786,1.3786,0,0,0,1.0113.3854,1.6771,1.6771,0,0,0,1.7817-1.3,3.3641,3.3641,0,0,0,.1926-1.3V24.5622Z"/><path d="M17.42,8.5742A9.9818,9.9818,0,0,1,18.431,4.0958,5.9926,5.9926,0,0,1,24.21.9175a6.0948,6.0948,0,0,1,5.7786,3.1783A9.9834,9.9834,0,0,1,31,8.5742v20.129a11.06,11.06,0,0,1-.9633,5.1046c-.915,1.7817-2.5524,3.2747-5.827,3.2747s-4.912-1.493-5.827-3.2747a11.063,11.063,0,0,1-.963-5.1046V26.4885h5.201a27.8748,27.8748,0,0,0,.241,4.8153c.1926.915.578,1.252,1.348,1.252a1.2847,1.2847,0,0,0,1.3-.915,10.7608,10.7608,0,0,0,.2893-2.9376v-6.645a5.1157,5.1157,0,0,1-7.5126-2.119,10.8315,10.8315,0,0,1-.867-4.4787Zm8.38-1.541a1.636,1.636,0,0,0-1.59-1.589,1.7192,1.7192,0,0,0-1.589,1.589V17.2905A1.72,1.72,0,0,0,24.21,18.88a1.5768,1.5768,0,0,0,1.59-1.445Z"/></svg>