<svg data-name="Layer 1" xmlns="http://www.w3.org/2000/svg" width="32" height="38"><path d="M14.869 24.562v4.863a9.642 9.642 0 0 1-.867 3.853 6.625 6.625 0 0 1-2.07 2.6 6.18 6.18 0 0 1-3.997 1.204A6.324 6.324 0 0 1 3.89 35.88a6.488 6.488 0 0 1-2.023-2.6A9.647 9.647 0 0 1 1 29.424V8.575a9.602 9.602 0 0 1 .867-3.805A6.626 6.626 0 0 1 3.89 2.121 6.625 6.625 0 0 1 7.935.917a6.473 6.473 0 0 1 3.997 1.204 6.762 6.762 0 0 1 2.07 2.649 9.597 9.597 0 0 1 .867 3.804v4.864h-4.864V8.574a3.032 3.032 0 0 0-.77-2.215 1.752 1.752 0 0 0-2.793.915 5.211 5.211 0 0 0-.24 1.3v20.852a3.32 3.32 0 0 0 .818 2.215 1.379 1.379 0 0 0 1.011.385 1.677 1.677 0 0 0 1.782-1.3 3.364 3.364 0 0 0 .193-1.3v-4.864zM17.42 8.574a9.982 9.982 0 0 1 1.011-4.478A5.993 5.993 0 0 1 24.21.917a6.095 6.095 0 0 1 5.779 3.179A9.983 9.983 0 0 1 31 8.574v20.13a11.06 11.06 0 0 1-.963 5.104c-.915 1.782-2.553 3.275-5.827 3.275s-4.912-1.493-5.827-3.275a11.063 11.063 0 0 1-.963-5.105v-2.215h5.2a27.875 27.875 0 0 0 .242 4.816c.192.915.578 1.252 1.348 1.252a1.285 1.285 0 0 0 1.3-.915 10.76 10.76 0 0 0 .289-2.938v-6.645a5.116 5.116 0 0 1-7.513-2.119 10.832 10.832 0 0 1-.867-4.479zm8.38-1.54a1.636 1.636 0 0 0-1.59-1.59 1.72 1.72 0 0 0-1.589 1.59V17.29a1.72 1.72 0 0 0 1.589 1.589 1.577 1.577 0 0 0 1.59-1.445z"/></svg>